<svg width="62" height="94" viewBox="0 0 62 94" fill="none" xmlns="http://www.w3.org/2000/svg">
<path d="M21.6758 76.5925C21.1081 76.5925 20.6312 76.9505 20.4571 77.4456L17.9666 83.7907L17.7471 84.5143L17.5503 83.7831L15.6275 77.6132C15.6275 77.5904 15.6124 77.5675 15.6048 77.5599V77.5447C15.4232 77.0267 14.9387 76.6611 14.371 76.6611H11.2598C10.5633 76.6992 10.0032 77.2704 10.0032 77.9865C10.0032 78.1769 10.094 78.4282 10.1546 78.6644L10.5633 79.9517L9.04181 83.8135L8.79958 84.5296L8.60276 83.8059L6.6876 77.6208C6.66489 77.598 6.66489 77.5751 6.65732 77.5675V77.5523C6.48322 77.0343 5.98361 76.6687 5.42344 76.6687H2.31225C1.6234 76.7068 1.05566 77.2781 1.05566 77.9941C1.05566 78.1845 1.13136 78.4359 1.21463 78.672L5.87006 92.6342C6.00632 93.2054 6.53621 93.6244 7.13422 93.6244C7.72467 93.6244 8.22427 93.2435 8.38324 92.7027L11.6458 84.4229L11.8881 83.6841L12.0849 84.4153L14.8327 92.6342C14.9765 93.2054 15.4837 93.6244 16.1044 93.6244C16.7025 93.6244 17.1945 93.2283 17.3686 92.6646L22.887 78.512C22.9627 78.3368 23.0232 78.1388 23.0232 77.9408C22.993 77.1867 22.4025 76.5925 21.6758 76.5925Z" fill="black"/>
<path d="M44.8858 76.5925C44.318 76.5925 43.8411 76.9505 43.6519 77.4456L41.1766 83.7907L40.9419 84.5143L40.7602 83.7831L38.8224 77.6132C38.8224 77.5904 38.8224 77.5675 38.8148 77.5599V77.5447C38.6255 77.0267 38.1411 76.6611 37.5733 76.6611H34.4621C33.7657 76.6992 33.2131 77.2704 33.2131 77.9865C33.2131 78.1769 33.2813 78.4282 33.3645 78.6644L33.7733 79.9517L32.2442 83.8135L31.9944 84.5296L31.8052 83.8059L29.89 77.6208C29.8673 77.598 29.8673 77.5751 29.8597 77.5675V77.5523C29.6856 77.0343 29.2011 76.6687 28.641 76.6687H25.5222C24.8182 76.7068 24.2656 77.2781 24.2656 77.9941C24.2656 78.1845 24.3565 78.4359 24.417 78.672L29.0876 92.6342C29.2238 93.2054 29.7386 93.6244 30.3518 93.6244C30.9346 93.6244 31.4267 93.2435 31.6008 92.7027L34.8558 84.4229L35.0829 83.6841L35.2873 84.4153L38.02 92.6342C38.1714 93.2054 38.6785 93.6244 39.2917 93.6244C39.8897 93.6244 40.3969 93.2283 40.5558 92.6646L46.0742 78.512C46.1575 78.3368 46.2029 78.1388 46.2029 77.9408C46.2029 77.1867 45.6049 76.5925 44.8858 76.5925Z" fill="black"/>
<path d="M59.9576 76.6229H49.0798C48.4515 76.6229 47.9443 77.1333 47.9443 77.7655V77.7731V80.5381V92.3066C47.9443 92.3142 47.9443 92.2989 47.9443 92.3066C47.967 92.9616 48.5121 93.4948 49.1631 93.4948H52.244C52.9101 93.472 53.4324 92.9464 53.4476 92.2685V85.474C53.4476 85.474 57.8608 85.4664 57.8835 85.4664C58.5345 85.4588 59.0568 84.9332 59.0568 84.2629C59.0568 83.6154 58.5269 83.067 57.8608 83.067H53.4627L53.4552 79.1823H60.0182C60.6919 79.1518 61.2369 78.5881 61.2369 77.895C61.2369 77.1942 60.654 76.6229 59.9576 76.6229Z" fill="black"/>
<path d="M43.0848 30.2805C45.0681 32.5123 45.28 39.1468 50.2534 36.5113C53.2435 34.9269 53.2056 28.2239 49.2163 25.8092C45.984 23.8897 44.2203 26.4795 43.0545 29.6559C42.9561 29.9073 42.9485 30.1586 43.0848 30.2805Z" fill="black"/>
<path d="M35.3547 29.2217C33.273 30.9584 31.8423 35.7115 28.0195 34.0967C24.9311 32.5123 24.6283 26.3501 29.9574 23.5013C33.6666 21.7874 35.5515 25.1846 35.5818 28.7952C35.5818 28.9246 35.4607 29.1151 35.3547 29.2217Z" fill="black"/>
<path d="M40.4878 41.3557C42.5392 41.1424 42.0774 39.2229 40.518 38.743C39.1252 38.3241 37.0208 38.0575 35.5295 38.0803C32.8877 38.1413 32.9558 40.1751 34.3259 40.5178C35.363 40.8682 36.0367 41.0053 36.9299 42.1707C37.7551 43.7703 37.3917 41.6909 40.4878 41.3557Z" fill="black"/>
<path d="M50.1771 7.04818C52.7584 2.72928 57.2473 3.56716 59.4955 5.71518C61.9708 8.05364 62.372 10.7577 61.4182 12.662C60.1238 15.2137 56.8234 18.3139 54.6736 15.3127C53.7273 13.9874 51.7062 12.403 50.6086 11.9536C48.9205 11.2376 48.6026 9.69893 50.1771 7.04818Z" fill="black"/>
<path d="M40.6613 45.8574C39.5334 48.851 33.6971 47.8227 33.5154 44.9282C33.5154 44.8139 33.6744 44.8368 33.735 44.852C36.3314 45.4614 38.8067 45.7508 40.4797 45.7432C40.5478 45.7508 40.6841 45.7127 40.6613 45.8574ZM60.4488 26.1063C60.2141 25.3369 59.8357 25.3826 59.8584 26.0149C60.0703 33.891 55.3922 42.3307 45.3849 42.3917C42.8263 42.3993 43.5909 46.5201 38.9279 44.4483C35.5593 42.1631 33.6366 46.6572 31.2369 41.8204C30.7146 40.4264 29.9274 39.8704 28.9054 39.6114C19.0268 37.1511 15.8702 23.4631 24.5831 12.4183C26.309 13.4542 26.9373 13.6142 28.7767 11.9156C29.7381 11.0244 31.3429 10.0418 32.221 9.71423C34.3178 8.90681 35.4533 8.00799 33.6366 3.99377C31.3126 -1.22395 26.5588 0.253771 24.3787 2.05141C21.9261 4.0928 20.2002 7.37577 23.3643 11.2453C14.5152 17.2552 12.9937 24.6362 13.1981 31.0498C13.41 37.8747 11.6766 37.2882 13.8339 44.235C14.0232 44.8444 13.5993 44.8291 13.2738 44.6311C4.04618 38.6897 -0.934747 20.561 13.4403 10.5673C13.7658 10.2779 13.6296 9.89704 12.4487 10.5902C0.00390714 17.2095 -1.13913 30.0367 0.927426 38.6821C1.93421 42.8639 0.405108 43.6409 2.01748 49.1404C5.71911 60.6042 8.87572 61.503 13.3419 61.8382C21.4643 61.8382 15.9535 57.3364 16.2487 51.6693C16.2487 51.3418 16.6499 51.1742 16.877 51.8597C21.3432 61.9448 24.4998 71.1234 36.2481 70.2627C43.0458 69.3715 39.2761 65.9743 38.8597 64.0471C33.8561 47.3504 45.9905 43.4124 42.5614 59.6901C40.2904 69.0135 47.4666 68.0842 52.5081 64.7327C57.7085 61.305 64.2186 38.606 60.4488 26.1063Z" fill="black"/>
<path d="M12.426 63.4758C10.9878 63.4758 9.81445 64.6565 9.81445 66.0961C9.81445 67.5434 10.9878 68.724 12.426 68.724C13.8643 68.724 15.0225 67.5434 15.0225 66.0961C15.0225 64.6565 13.8643 63.4758 12.426 63.4758ZM14.5986 66.0961C14.5986 67.3072 13.6145 68.2822 12.426 68.2822C11.2224 68.2822 10.2535 67.3072 10.2535 66.0961C10.2535 64.9002 11.2224 63.9176 12.426 63.9176C13.6221 63.9176 14.5986 64.8926 14.5986 66.0961Z" fill="black"/>
<path d="M13.1674 66.5075C13.1144 66.8274 12.8494 67.0483 12.4861 67.0483C11.9865 67.0483 11.6685 66.5989 11.6685 66.0962C11.6685 65.563 11.9562 65.1669 12.4861 65.1669C12.8343 65.1669 13.0992 65.3726 13.1674 65.6849H13.5307C13.4701 65.106 13.016 64.7784 12.4785 64.7784C11.6988 64.7784 11.2598 65.3497 11.2598 66.0962C11.2598 66.8503 11.7442 67.4216 12.4936 67.4216C13.0235 67.4216 13.4474 67.0788 13.5534 66.5151H13.1674V66.5075Z" fill="black"/>
<path d="M58.2153 69.7296C56.7619 69.7296 55.6113 70.9027 55.6113 72.3499C55.6113 73.8124 56.7695 74.9702 58.2153 74.9702C59.646 74.9702 60.8194 73.8124 60.8194 72.3499C60.8194 70.9027 59.646 69.7296 58.2153 69.7296ZM60.3879 72.3499C60.3879 73.561 59.4038 74.536 58.2153 74.536C57.0042 74.536 56.0277 73.561 56.0277 72.3499C56.0277 71.1464 57.0042 70.1714 58.2153 70.1714C59.4114 70.1714 60.3879 71.1464 60.3879 72.3499Z" fill="black"/>
<path d="M57.7613 72.205V71.4357H58.2685C58.5259 71.4357 58.7984 71.5042 58.7984 71.8089C58.7984 72.1898 58.5183 72.205 58.1928 72.205H57.7613ZM57.7613 72.5325H58.1852L58.8438 73.5989H59.2525L58.5486 72.5021C58.9119 72.4564 59.192 72.2659 59.192 71.8318C59.192 71.3366 58.9119 71.131 58.329 71.131H57.3828V73.5989H57.7689V72.5325H57.7613Z" fill="black"/>
</svg>
